<svg version="1.1" id="Layer_1" xmlns="http://www.w3.org/2000/svg" xmlns:xlink="http://www.w3.org/1999/xlink" x="0px" y="0px"
	 width="100%" viewBox="0 0 1024 656" enable-background="new 0 0 1024 656" xml:space="preserve">
<path fill="#000000" opacity="1.000000" stroke="none" 
	d="
M284.796753,435.352936 
	C240.415421,417.440521 214.242249,384.928040 207.099487,338.237305 
	C202.152710,305.901245 210.741867,276.238892 230.139938,249.755402 
	C232.977661,245.881165 234.921738,245.869263 238.242874,249.160080 
	C246.874039,257.712463 256.058624,265.715607 264.520752,274.425262 
	C268.507843,278.528992 271.465240,278.140625 275.921356,275.405426 
	C303.454956,258.504974 339.034332,261.968506 363.089752,283.608734 
	C387.703369,305.751099 393.931366,343.103088 377.950439,372.734467 
	C374.439941,379.243530 374.443420,379.239838 379.833252,384.382477 
	C388.024933,392.198395 396.218872,400.012024 404.389008,407.850433 
	C405.329315,408.752502 406.124115,409.806274 406.964233,410.764435 
	C385.917847,434.967773 332.996521,453.950928 284.796753,435.352936 
M283.924530,377.576721 
	C314.340851,402.764587 355.390198,394.791931 371.487396,378.645569 
	C337.499939,347.176331 303.527802,315.721283 269.471710,284.188507 
	C251.195740,310.314606 253.477280,351.878937 283.924530,377.576721 
z"/>
<path fill="#000000" opacity="1.000000" stroke="none" 
	d="
M760.070190,330.510498 
	C758.732971,338.533447 754.399170,343.936127 747.261902,347.954010 
	C752.464233,357.674957 757.579895,367.233917 763.112732,377.572388 
	C757.514832,378.500275 752.799133,378.397919 748.106812,377.788879 
	C746.260193,377.549194 745.720581,375.606323 744.936218,374.172638 
	C741.184082,367.313568 737.513000,360.409851 733.725891,353.570312 
	C732.117126,350.665070 722.845947,348.862793 720.299866,350.873688 
	C718.920532,351.963165 719.230957,353.589355 719.219604,355.045532 
	C719.173096,361.036133 719.089172,367.029572 719.224854,373.017273 
	C719.303894,376.505646 718.150940,378.110992 714.385193,378.230621 
	C703.951111,378.562134 703.956299,378.695740 703.957642,368.161896 
	C703.960205,348.025665 704.071899,327.888397 703.883972,307.753937 
	C703.838562,302.892426 705.248291,300.783905 710.404724,301.023407 
	C718.872192,301.416626 727.419861,300.704437 735.833496,301.507996 
	C753.705444,303.214813 760.952209,312.084137 760.070190,330.510498 
M719.215210,325.511963 
	C719.213684,327.998779 719.368347,330.497833 719.174133,332.969513 
	C718.879944,336.714325 720.529724,338.014832 724.136902,337.767090 
	C727.438171,337.540344 730.780396,337.881317 734.077087,337.622162 
	C742.442993,336.964569 746.813599,330.778717 744.798584,322.704834 
	C743.249573,316.497803 739.284485,314.128693 729.971741,314.158203 
	C717.663391,314.197205 719.341431,312.735870 719.215210,325.511963 
z"/>
<path fill="#000000" opacity="1.000000" stroke="none" 
	d="
M555.307678,337.123962 
	C555.618469,343.642181 554.925415,349.568329 552.994507,355.305878 
	C547.635010,371.231201 533.088074,380.691772 516.688538,378.983093 
	C500.016937,377.246094 488.037537,365.466125 485.531616,348.860291 
	C484.029907,338.909088 484.421082,329.222534 488.591370,320.023682 
	C494.775726,306.382172 508.863983,298.654663 523.593933,300.414490 
	C539.621948,302.329407 550.864197,312.514862 554.187500,328.266510 
	C554.767761,331.016998 554.942749,333.853027 555.307678,337.123962 
M534.089661,359.588959 
	C541.931824,349.583405 542.081177,338.472260 538.343140,327.046692 
	C535.470337,318.265778 529.005310,313.958801 519.872925,313.957947 
	C511.205811,313.957123 504.645660,318.359650 501.736206,326.865570 
	C498.925201,335.083649 498.800964,343.681000 501.491333,351.856079 
	C506.214355,366.207581 522.184082,370.121643 534.089661,359.588959 
z"/>
<path fill="#000000" opacity="1.000000" stroke="none" 
	d="
M676.142578,322.953400 
	C682.550781,341.151123 688.828613,358.980347 695.274414,377.286896 
	C690.165100,378.704224 685.729675,378.152374 681.328918,377.877197 
	C680.279724,377.811615 679.588135,376.928711 679.177612,375.977417 
	C678.783142,375.063354 678.481201,374.108276 678.158264,373.164490 
	C673.421387,359.320648 673.422119,359.320404 658.953430,359.343445 
	C646.354492,359.363495 646.354492,359.363495 642.190918,370.937683 
	C639.232849,379.160706 636.133057,380.315521 624.436707,377.539246 
	C623.334351,375.844055 624.404419,374.313080 624.939453,372.822479 
	C632.978943,350.425537 641.148560,328.074707 649.055847,305.631378 
	C650.350586,301.956604 652.326477,300.777557 656.010620,300.860352 
	C670.668518,301.189789 667.817566,299.597168 672.374939,312.224609 
	C673.617432,315.667206 674.801392,319.130890 676.142578,322.953400 
M655.921143,347.063110 
	C659.068054,347.055481 662.216003,347.092773 665.361572,347.024475 
	C667.455078,346.979004 669.092163,346.326752 668.215576,343.719330 
	C665.598938,335.936035 662.935059,328.168640 660.289551,320.395081 
	C656.466553,328.159241 653.803894,335.917999 651.333496,343.737457 
	C650.242065,347.192047 652.851685,347.027130 655.921143,347.063110 
z"/>
<path fill="#000000" opacity="1.000000" stroke="none" 
	d="
M464.661926,305.159729 
	C469.886688,308.472931 472.753357,313.008057 474.063568,318.581055 
	C474.783051,321.641357 473.804993,323.394287 470.333344,323.317291 
	C465.543274,323.211060 461.114868,324.278595 458.041412,318.077271 
	C454.658356,311.251251 440.461121,311.382629 435.445679,317.345337 
	C432.109497,321.311615 432.829681,325.880890 437.356689,328.840302 
	C439.889587,330.496155 442.764343,331.347870 445.690216,332.079987 
	C451.171906,333.451599 456.728027,334.610229 461.894226,337.013062 
	C470.443573,340.989502 475.757904,347.075439 475.404968,357.128296 
	C475.057434,367.027863 469.789917,373.347504 460.963226,376.666534 
	C450.234711,380.700653 439.376282,380.405273 428.934021,375.508850 
	C422.372284,372.432037 418.339050,367.082947 416.901978,359.896515 
	C416.223816,356.505402 416.972717,354.317017 421.081482,354.658081 
	C423.065521,354.822784 425.075256,354.722931 427.071930,354.678070 
	C429.241699,354.629303 430.556213,355.200073 431.566772,357.557709 
	C435.447662,366.612030 450.918060,369.299835 457.940887,362.347412 
	C462.184937,358.145905 461.444550,352.483521 456.088654,349.447205 
	C451.100891,346.619568 445.404907,345.826630 439.976959,344.291534 
	C435.965210,343.157013 432.008575,341.984314 428.366486,339.858704 
	C415.857697,332.558228 414.510803,315.296326 426.266907,306.800323 
	C438.349274,298.068573 451.287598,297.969421 464.661926,305.159729 
z"/>
<path fill="#000000" opacity="1.000000" stroke="none" 
	d="
M609.826538,378.169678 
	C597.200378,378.163452 585.053772,378.011444 572.913269,378.219116 
	C568.344543,378.297272 566.809326,376.646515 566.844177,372.107422 
	C567.010132,350.482025 566.999573,328.854095 566.851868,307.228424 
	C566.823120,303.023956 567.923767,301.361755 572.474915,301.481293 
	C582.139648,301.735168 582.150940,301.483459 582.151062,311.008423 
	C582.151245,327.477966 582.218506,343.948059 582.085449,360.416565 
	C582.055298,364.145691 582.883789,365.737885 587.121399,365.515564 
	C594.416565,365.132782 601.751648,365.585480 609.068604,365.523224 
	C615.324158,365.470001 615.227905,365.369873 615.350952,371.854004 
	C615.420288,375.503815 615.354065,378.740784 609.826538,378.169678 
z"/>
</svg>