<?xml version="1.0" encoding="UTF-8"?>
<svg version="1.1" xmlns="http://www.w3.org/2000/svg" width="1280" height="832">
<path d="M0 0 C422.4 0 844.8 0 1280 0 C1280 274.56 1280 549.12 1280 832 C857.6 832 435.2 832 0 832 C0 557.44 0 282.88 0 0 Z " fill="#FEFEFE" transform="translate(0,0)"/>
<path d="M0 0 C3.21630141 1.52603415 5.28769299 3.09800771 7.75 5.6875 C10.28985451 8.29713073 12.84168915 10.77770137 15.625 13.125 C20.28153324 17.11894353 24.52994951 21.5037525 28.84155273 25.86108398 C32.58239063 29.62623606 36.38311719 33.25100092 40.44921875 36.66796875 C40.96097656 37.10753906 41.47273438 37.54710937 42 38 C42.58394531 38.40863281 43.16789062 38.81726563 43.76953125 39.23828125 C45 41 45 41 44.92578125 44.21484375 C43.88792251 48.45824086 42.2767884 51.76285121 40.1875 55.5625 C28.98543305 76.87861849 28.12176322 100.73189513 35.16113281 123.56347656 C42.74331419 145.58622691 58.31116781 164.04097097 78.9375 174.8125 C99.62047496 184.65285813 125.04934041 188.19787587 147.08203125 180.69775391 C156.04181771 177.43819819 164.64503728 173.89429077 172.203125 167.96875 C174 167 174 167 175.92773438 167.27099609 C179.46427294 168.5151177 181.71983961 171.46277382 184.25 174.125 C185.42126445 175.32868699 186.5944292 176.53052794 187.76953125 177.73046875 C188.3310791 178.30458496 188.89262695 178.87870117 189.47119141 179.47021484 C191.22040336 181.22054415 193.04250099 182.84668738 194.9375 184.4375 C199.59399277 188.37607525 203.81239179 192.76290382 208.07788086 197.11499023 C210.91141761 199.98963283 213.6517396 202.71257458 217 205 C215.4456351 209.22039583 212.32052742 211.52140777 208.875 214.1875 C208.25463867 214.66872314 207.63427734 215.14994629 206.99511719 215.64575195 C175.90261836 239.15916313 136.05382552 248.8543948 97.52294922 244.61767578 C63.73495053 239.62553014 34.37901766 224.41069028 10.36328125 200.359375 C9.05403517 199.05229296 7.73283739 197.75584661 6.3671875 196.5078125 C-17.44899123 174.43732226 -31.78418619 137.32177893 -33.1105957 105.33276367 C-33.65125275 79.81605154 -30.57452584 56.43225826 -20 33 C-19.71817871 32.36529785 -19.43635742 31.7305957 -19.14599609 31.07666016 C-14.05368627 19.77010147 -7.37823929 9.93602892 0 0 Z " fill="#0C1F33" transform="translate(290,307)"/>
<path d="M0 0 C18.48869905 13.66805803 31.45077267 32.65998025 36.41015625 55.30859375 C39.59193802 76.58586224 37.07949537 96.59798311 28 116 C27.443125 117.41925781 27.443125 117.41925781 26.875 118.8671875 C21.28185137 131.48672909 7.58113473 136.03082839 -4.48144531 140.79394531 C-13.59437688 144.19616209 -22.42668531 145.37003238 -32.125 145.3125 C-33.12982422 145.30686035 -34.13464844 145.3012207 -35.16992188 145.29541016 C-59.52915144 144.90239383 -80.85548615 135.91101625 -98.25390625 118.8671875 C-116.37016723 99.95205869 -124.7959035 75.33318914 -124.31640625 49.40625 C-123.7480342 35.99362089 -119.58222962 22.70148931 -112.8125 11.125 C-110.89992204 8.13635125 -110.89992204 8.13635125 -110.19140625 5.0234375 C-108.05477235 -0.39870886 -102.90621034 -2.27637697 -98 -5 C-97.05382812 -5.54011719 -96.10765625 -6.08023437 -95.1328125 -6.63671875 C-65.18350586 -22.74766013 -27.69920987 -18.7762057 0 0 Z " fill="#F4A302" transform="translate(444,347)"/>
<path d="M0 0 C3.05941832 1.37351314 5.23633583 2.95691038 7.65234375 5.2734375 C8.3395752 5.92715332 9.02680664 6.58086914 9.73486328 7.25439453 C10.4617334 7.95419434 11.18860352 8.65399414 11.9375 9.375 C13.47477284 10.8390538 15.01253743 12.30259142 16.55078125 13.765625 C17.68700928 14.8494043 17.68700928 14.8494043 18.84619141 15.95507812 C21.74562859 18.70793302 24.67972161 21.42137358 27.625 24.125 C32.29111008 28.41603731 36.93259141 32.73242865 41.5625 37.0625 C46.02117662 41.23125505 50.49466255 45.38169825 55 49.5 C60.15479912 54.21197074 65.26456635 58.9702827 70.36547852 63.74047852 C74.37517698 67.48855272 78.39915941 71.22031976 82.4375 74.9375 C87.33952014 79.4506397 92.20641497 83.99999337 97.0625 88.5625 C102.65959794 93.82025938 108.29035544 99.03633699 113.9609375 104.21484375 C119.6744521 109.43977813 125.33186859 114.72595465 131 120 C127.20466323 124.21297036 123.46957842 126.6308041 118.375 129.0625 C117.66714355 129.40684082 116.95928711 129.75118164 116.22998047 130.10595703 C103.66582163 136.12432311 91.85692137 139.3954436 77.875 139.3125 C76.87017578 139.30686035 75.86535156 139.3012207 74.83007812 139.29541016 C50.47084856 138.90239383 29.14451385 129.91101625 11.74609375 112.8671875 C-6.37016723 93.95205869 -14.7959035 69.33318914 -14.31640625 43.40625 C-13.65458781 27.78844255 -7.91257552 13.33353152 0 0 Z " fill="#FEFEFD" transform="translate(334,353)"/>
<path d="M0 0 C8.69966152 7.2102253 14.28202772 16.76650091 16 28 C17.38374449 45.18685083 15.96041064 61.48787193 4.75 75.375 C-2.38698181 82.93642787 -12.49635471 87.87620364 -22.90234375 88.43359375 C-24.58056511 88.45709641 -26.25923889 88.45796856 -27.9375 88.4375 C-29.25681519 88.42505249 -29.25681519 88.42505249 -30.6027832 88.41235352 C-42.47604787 88.1028269 -50.25234996 83.50228095 -58.71875 75.34375 C-68.9425509 64.2853531 -71.78812338 49.50218749 -71.28125 34.859375 C-70.36897134 22.34088453 -65.55188064 9.54533838 -56 1 C-38.6336903 -12.16876565 -17.81705216 -12.77788589 0 0 Z " fill="#0E2236" transform="translate(676,384)"/>
<path d="M0 0 C50.76223776 0 50.76223776 0 61 9 C66.69034161 15.31795282 68.39226362 21.3849148 68.375 29.75 C68.37338867 30.55332764 68.37177734 31.35665527 68.37011719 32.18432617 C68.24584056 38.18676544 67.40181026 42.93247575 64 48 C63.38125 48.928125 62.7625 49.85625 62.125 50.8125 C59.63819012 53.37245135 57.07416642 55.19559797 54 57 C53.34 57 52.68 57 52 57 C55.03691541 62.57582011 58.07926083 68.14849657 61.140625 73.7109375 C62.17708333 75.59895833 63.21354167 77.48697917 64.25 79.375 C64.77851562 80.33277344 65.30703125 81.29054688 65.8515625 82.27734375 C66.35945312 83.20417969 66.86734375 84.13101563 67.390625 85.0859375 C67.84469727 85.9114209 68.29876953 86.7369043 68.76660156 87.58740234 C70.0059146 90.01156929 71.02969417 92.45761758 72 95 C68.95237657 95.2715704 65.92889722 95.46827507 62.875 95.625 C61.59109375 95.75068359 61.59109375 95.75068359 60.28125 95.87890625 C57.56151023 95.98351163 55.57887438 95.88812064 53 95 C50.18680966 92.06291167 48.65704571 88.68419301 47 85 C46.53754883 83.99130859 46.07509766 82.98261719 45.59863281 81.94335938 C45.12651367 80.90888672 44.65439453 79.87441406 44.16796875 78.80859375 C43.67748047 77.76251953 43.18699219 76.71644531 42.68164062 75.63867188 C41.67950106 73.49160422 40.72650604 71.32095811 39.82226562 69.13085938 C38.19046133 65.45029808 38.19046133 65.45029808 34 61 C28.39 60.67 22.78 60.34 17 60 C17 71.55 17 83.1 17 95 C11.39 95 5.78 95 0 95 C0 63.65 0 32.3 0 0 Z " fill="#0F2236" transform="translate(880,376)"/>
<path d="M0 0 C7.26 0 14.52 0 22 0 C27.88565267 15.80718145 33.49524836 31.70325793 39.0625 47.625 C40.3766518 51.37949451 41.69169807 55.13367576 43.00668335 58.88787842 C43.84974975 61.29558735 44.69223134 63.70350116 45.53408813 66.1116333 C47.32823914 71.241701 49.12709955 76.36970337 50.95654297 81.48730469 C51.24234726 82.28840668 51.52815155 83.08950867 51.82261658 83.91488647 C52.3365828 85.35258541 52.85311379 86.78937138 53.37281799 88.2250061 C55 92.77905179 55 92.77905179 55 95 C49.06 95 43.12 95 37 95 C35.82762613 91.73111061 34.66190012 88.46011056 33.5 85.1875 C33.16613281 84.25873047 32.83226562 83.32996094 32.48828125 82.37304688 C32.17246094 81.48037109 31.85664062 80.58769531 31.53125 79.66796875 C31.23798828 78.84578857 30.94472656 78.0236084 30.64257812 77.17651367 C30 75 30 75 30 72 C17.79 72 5.58 72 -7 72 C-7.66 74.97 -8.32 77.94 -9 81 C-10.54315818 85.71832304 -12.28108297 90.34083014 -14 95 C-20.27 95 -26.54 95 -33 95 C-32.28770248 90.72621487 -31.6136209 87.53894032 -30.16162109 83.58740234 C-29.78387543 82.55126801 -29.40612976 81.51513367 -29.01693726 80.44760132 C-28.60658234 79.33825226 -28.19622742 78.2289032 -27.7734375 77.0859375 C-27.34753326 75.92107819 -26.92162903 74.75621887 -26.4828186 73.55606079 C-25.34827856 70.45529169 -24.20939664 67.35616633 -23.06811523 64.25787354 C-21.04632225 58.76559705 -19.03576761 53.26918619 -17.0234375 47.7734375 C-16.37330437 45.99978821 -16.37330437 45.99978821 -15.71003723 44.19030762 C-12.29274703 34.84899209 -8.97945941 25.47464459 -5.72341919 16.07611084 C-3.85173206 10.70463329 -1.92051113 5.35415224 0 0 Z " fill="#F3A302" transform="translate(812,376)"/>
<path d="M0 0 C4.65215589 3.74676738 9.51015651 8.55442822 10.88671875 14.51953125 C10.88671875 16.82953125 10.88671875 19.13953125 10.88671875 21.51953125 C5.60671875 21.51953125 0.32671875 21.51953125 -5.11328125 21.51953125 C-5.69078125 20.26140625 -6.26828125 19.00328125 -6.86328125 17.70703125 C-8.50566282 14.43383417 -9.79148577 12.2842351 -13.11328125 10.51953125 C-19.28873535 8.58884604 -27.11955848 8.38845221 -33.17578125 10.76953125 C-36.91682492 12.96074649 -36.91682492 12.96074649 -39.11328125 16.51953125 C-39.73139582 21.38718347 -39.96811835 23.35384429 -37.05078125 27.33203125 C-31.20222594 31.68733839 -24.77237302 33.22012541 -17.80078125 34.89453125 C-8.29513712 37.29787951 0.31835144 39.7920403 6.88671875 47.51953125 C7.62921875 48.38578125 8.37171875 49.25203125 9.13671875 50.14453125 C13.5070407 56.07568247 12.48334319 64.48491286 11.88671875 71.51953125 C10.80587787 74.86306705 9.29890679 76.99501092 6.88671875 79.51953125 C6.34015625 80.14214844 5.79359375 80.76476562 5.23046875 81.40625 C-3.20762032 89.93372561 -13.91420006 90.86767196 -25.30078125 91.01953125 C-26.2148877 91.03814209 -27.12899414 91.05675293 -28.07080078 91.07592773 C-38.79230302 90.97645784 -46.37714448 87.1779393 -54.04296875 79.8125 C-58.96637233 74.3595983 -59.56382531 68.66245851 -60.11328125 61.51953125 C-54.50328125 61.51953125 -48.89328125 61.51953125 -43.11328125 61.51953125 C-42.52546875 63.37578125 -42.52546875 63.37578125 -41.92578125 65.26953125 C-40.09218399 70.14190707 -37.52959686 72.39518812 -32.8046875 74.59375 C-25.95745371 76.94903942 -18.95753047 76.32428922 -12.48828125 73.20703125 C-9.29029907 71.48384668 -8.18159061 70.62199528 -6.11328125 67.51953125 C-5.83466545 65.33616457 -5.83466545 65.33616457 -5.92578125 63.01953125 C-5.93544922 61.859375 -5.93544922 61.859375 -5.9453125 60.67578125 C-6.04022475 58.33604276 -6.04022475 58.33604276 -7.11328125 55.51953125 C-9.38883977 54.36886784 -9.38883977 54.36886784 -12.11328125 53.51953125 C-12.96664062 53.21273437 -13.82 52.9059375 -14.69921875 52.58984375 C-19.71684602 50.88919137 -24.71140926 49.33988994 -29.85644531 48.06591797 C-36.60450065 46.38653001 -42.33679563 44.40827647 -48.11328125 40.51953125 C-49.04140625 39.92140625 -49.96953125 39.32328125 -50.92578125 38.70703125 C-55.78308649 33.84972601 -57.71532572 27.7031755 -58.55078125 21.01953125 C-58.38778949 13.73923247 -54.73906962 7.08779061 -49.6171875 2.078125 C-35.22794549 -9.00465289 -15.32094781 -10.28647814 0 0 Z " fill="#0F2336" transform="translate(580.11328125,381.48046875)"/>
<path d="M0 0 C6.5334781 4.02826645 11.16933708 10.24904868 13.5 17.5 C14.04467557 20.27289384 14.35055128 22.70003423 14.5 25.5 C14.56445312 26.64082031 14.62890625 27.78164063 14.6953125 28.95703125 C15.03212169 40.03805359 13.27996273 49.07077783 6.21484375 57.84375 C0.2650166 63.59028009 -7.3828921 64.92654465 -15.359375 64.83984375 C-21.76319198 64.14689341 -26.44396162 60.9098147 -30.8125 56.3125 C-36.69057508 48.55295819 -38.15258018 40.54897601 -38 31 C-38.01546875 30.03191406 -38.0309375 29.06382812 -38.046875 28.06640625 C-38.00216517 19.73920081 -35.89842219 13.13189646 -31.3125 6.1875 C-22.81153514 -1.9356442 -11.27565673 -4.9015038 0 0 Z " fill="#FCFCFD" transform="translate(660.5,392.5)"/>
<path d="M0 0 C5.61 0 11.22 0 17 0 C17 26.73 17 53.46 17 81 C30.86 81 44.72 81 59 81 C59 85.62 59 90.24 59 95 C39.53 95 20.06 95 0 95 C0 63.65 0 32.3 0 0 Z " fill="#0F2337" transform="translate(708,376)"/>
<path d="M0 0 C1.65 0 3.3 0 5 0 C8.73832949 8.66457143 12.00765632 17.43930027 15.08984375 26.35546875 C15.56123915 27.71018265 16.03297218 29.0647791 16.50502014 30.41926575 C17.73720086 33.95756254 18.96509786 37.49733017 20.19195557 41.03747559 C21.66694278 45.29108997 23.14701054 49.54293846 24.62629128 53.79506111 C25.81056143 57.19952386 26.99405008 60.60425244 28.17538452 64.00973511 C30.10881969 69.58125369 32.0462706 75.15094042 34.02783203 80.70556641 C34.31557999 81.51254471 34.60332794 82.31952301 34.89979553 83.1509552 C35.4069898 84.56841844 35.91686675 85.98492636 36.43016052 87.40019226 C38 91.78271795 38 91.78271795 38 94 C32.06 94 26.12 94 20 94 C18.82762613 90.73111061 17.66190012 87.46011056 16.5 84.1875 C16.16613281 83.25873047 15.83226562 82.32996094 15.48828125 81.37304688 C15.17246094 80.48037109 14.85664062 79.58769531 14.53125 78.66796875 C14.23798828 77.84578857 13.94472656 77.0236084 13.64257812 76.17651367 C13 74 13 74 13 71 C1.12 71 -10.76 71 -23 71 C-21 62 -21 62 -19 57 C-10.42 57 -1.84 57 7 57 C6.14535156 54.44765625 5.29070313 51.8953125 4.41015625 49.265625 C3.58240085 46.79016013 2.7551647 44.31452231 1.92797852 41.83886719 C1.35332625 40.11993555 0.7781353 38.40118389 0.20239258 36.68261719 C-0.62560833 34.21075943 -1.45166269 31.73825848 -2.27734375 29.265625 C-2.53466782 28.49881409 -2.79199188 27.73200317 -3.05711365 26.94195557 C-6.34266007 17.08634957 -6.34266007 17.08634957 -4.78515625 12.890625 C-4.51123047 12.13652344 -4.23730469 11.38242187 -3.95507812 10.60546875 C-3.66052734 9.82816406 -3.36597656 9.05085938 -3.0625 8.25 C-2.77181641 7.45722656 -2.48113281 6.66445313 -2.18164062 5.84765625 C-1.46405186 3.89487371 -0.73329094 1.94694059 0 0 Z " fill="#102336" transform="translate(829,377)"/>
<path d="M0 0 C3.650625 -0.0825 7.30125 -0.165 11.0625 -0.25 C12.19953369 -0.28641602 13.33656738 -0.32283203 14.50805664 -0.36035156 C20.93772499 -0.43044201 24.79154922 0.14966676 30 4 C33.30043473 7.55431432 34.26670608 10.26046873 34.4375 15 C34.22099101 20.14208862 32.81591597 23.68883421 29.625 27.75 C25.86153319 30.64497447 22.13100564 31.24727381 17.48046875 31.1953125 C16.55903076 31.19031738 15.63759277 31.18532227 14.68823242 31.18017578 C13.53299072 31.16196777 12.37774902 31.14375977 11.1875 31.125 C5.6496875 31.063125 5.6496875 31.063125 0 31 C0 20.77 0 10.54 0 0 Z " fill="#FDFDFD" transform="translate(897,391)"/>
<path d="M0 0 C2.63499581 2.63499581 3.42745857 5.60261554 4.6015625 9.0546875 C4.8428891 9.75264435 5.0842157 10.4506012 5.33285522 11.16970825 C5.84166436 12.64648568 6.3475005 14.12429027 6.85058594 15.60302734 C7.6206458 17.86222567 8.40337807 20.11674319 9.1875 22.37109375 C9.68045921 23.80702697 10.17267152 25.24321686 10.6640625 26.6796875 C10.89839996 27.35272919 11.13273743 28.02577087 11.37417603 28.71920776 C12.49556061 32.04447995 13 34.43842985 13 38 C4.75 38 -3.5 38 -12 38 C-11.25175107 32.76225746 -10.40030707 28.70669032 -8.75 23.7890625 C-8.42273926 22.80865494 -8.42273926 22.80865494 -8.08886719 21.80844116 C-7.63110803 20.4411599 -7.17046084 19.07484239 -6.70703125 17.70947266 C-5.99558742 15.61199081 -5.29400099 13.51139821 -4.59375 11.41015625 C-1.14772503 1.14772503 -1.14772503 1.14772503 0 0 Z " fill="#FAF9F7" transform="translate(823,396)"/>
</svg>
